<svg width="130" height="16" viewBox="0 0 130 16" fill="none" xmlns="http://www.w3.org/2000/svg">
<path d="M8.47262 0L18.9259 10.4109V16H14.0477V12.4201L6.45535 4.85844H4.87818V16H0V0H8.47262Z" fill="black"/>
<path d="M18.9259 0H14.0477V5.55251H18.9259V0Z" fill="#FACC15"/>
<path fill-rule="evenodd" clip-rule="evenodd" d="M69.3489 0V15.8308H66.0706V0H69.3489ZM75.3756 6.76801V3.1725H81.6995V0.422998H71.7801V15.8308H81.6995V13.0813H75.3756V9.41176H80.219V6.76801H75.3756ZM95.356 15.7779C95.7578 15.926 96.2196 16 96.7413 16C97.3053 16 97.8517 15.9225 98.3804 15.7674C98.9092 15.6052 99.3851 15.3655 99.8081 15.0483L98.814 13.4937C98.7506 13.395 98.6871 13.3245 98.6237 13.2822C98.5673 13.2329 98.4897 13.2082 98.391 13.2082C98.3205 13.2082 98.257 13.2223 98.2007 13.2505C98.1513 13.2716 98.0949 13.2998 98.0315 13.3351C97.9751 13.3633 97.9045 13.3915 97.82 13.4197C97.7424 13.4408 97.6437 13.4514 97.5238 13.4514C97.2912 13.4514 97.1114 13.3703 96.9845 13.2082C96.8647 13.039 96.8047 12.8275 96.8047 12.5737V7.12756H99.5225V4.88566H96.8047V1.68143H95.0916C94.6968 1.68143 94.4571 1.85063 94.3725 2.18903L93.7274 4.86451L91.9825 5.20291V6.48249C91.9825 6.69399 92.0425 6.85614 92.1623 6.96894C92.2822 7.07469 92.4267 7.12756 92.5959 7.12756H93.5265V12.7958C93.5265 13.2822 93.597 13.7228 93.738 14.1176C93.879 14.5124 94.0834 14.8509 94.3513 15.1329C94.6263 15.4078 94.9612 15.6228 95.356 15.7779ZM114.255 15.7779C114.657 15.926 115.118 16 115.64 16C116.204 16 116.75 15.9225 117.279 15.7674C117.808 15.6052 118.284 15.3655 118.707 15.0483L117.713 13.4937C117.649 13.395 117.586 13.3245 117.522 13.2822C117.466 13.2329 117.388 13.2082 117.29 13.2082C117.219 13.2082 117.156 13.2223 117.099 13.2505C117.05 13.2716 116.994 13.2998 116.93 13.3351C116.874 13.3633 116.803 13.3915 116.719 13.4197C116.641 13.4408 116.542 13.4514 116.423 13.4514C116.19 13.4514 116.01 13.3703 115.883 13.2082C115.763 13.039 115.703 12.8275 115.703 12.5737V7.12756H118.421V4.88566H115.703V1.68143H113.99C113.596 1.68143 113.356 1.85063 113.271 2.18903L112.626 4.86451L110.881 5.20291V6.48249C110.881 6.69399 110.941 6.85614 111.061 6.96894C111.181 7.07469 111.325 7.12756 111.495 7.12756H112.425V12.7958C112.425 13.2822 112.496 13.7228 112.637 14.1176C112.778 14.5124 112.982 14.8509 113.25 15.1329C113.525 15.4078 113.86 15.6228 114.255 15.7779ZM126.446 8.26967C126.516 8.51642 126.551 8.77022 126.551 9.03107H122.47C122.582 8.36132 122.815 7.85019 123.167 7.49769C123.52 7.13814 124.006 6.95837 124.627 6.95837C124.979 6.95837 125.279 7.01829 125.526 7.13814C125.772 7.25799 125.97 7.41662 126.118 7.61402C126.273 7.80437 126.382 8.02292 126.446 8.26967ZM123.263 12.9332C122.811 12.5173 122.533 11.8511 122.427 10.9346H128.751C128.899 10.9346 129.019 10.9169 129.111 10.8817C129.209 10.8464 129.287 10.783 129.343 10.6913C129.4 10.5997 129.438 10.4763 129.46 10.3212C129.481 10.1661 129.491 9.96519 129.491 9.71844C129.491 8.92884 129.368 8.22384 129.121 7.60344C128.881 6.97599 128.543 6.44724 128.106 6.01719C127.676 5.58714 127.158 5.25931 126.551 5.03371C125.952 4.80811 125.29 4.69531 124.563 4.69531C123.724 4.69531 122.97 4.83984 122.3 5.12889C121.638 5.41794 121.07 5.80921 120.598 6.30271C120.132 6.79622 119.773 7.37079 119.519 8.02644C119.272 8.68209 119.149 9.37652 119.149 10.1097C119.149 11.0826 119.293 11.9357 119.583 12.6689C119.879 13.4021 120.277 14.0154 120.778 14.5089C121.285 15.0024 121.874 15.3761 122.544 15.6299C123.22 15.8766 123.943 16 124.711 16C125.085 16 125.476 15.9718 125.885 15.9154C126.301 15.8661 126.714 15.7744 127.123 15.6405C127.538 15.4995 127.94 15.3091 128.328 15.0694C128.723 14.8227 129.089 14.5054 129.428 14.1176L128.476 12.9438C128.342 12.7535 128.145 12.6583 127.884 12.6583C127.687 12.6583 127.496 12.7041 127.313 12.7958C127.137 12.8874 126.939 12.9896 126.721 13.1024C126.509 13.2152 126.266 13.3175 125.991 13.4091C125.716 13.5008 125.388 13.5466 125.008 13.5466C124.295 13.5466 123.714 13.3421 123.263 12.9332ZM106.593 11.3681C105.937 11.3963 105.398 11.4527 104.975 11.5373C104.552 11.6219 104.217 11.7277 103.97 11.8546C103.724 11.9815 103.551 12.126 103.452 12.2882C103.36 12.4503 103.315 12.6266 103.315 12.8169C103.315 13.1906 103.417 13.4549 103.621 13.61C103.826 13.7581 104.125 13.8321 104.52 13.8321C104.943 13.8321 105.313 13.7581 105.631 13.61C105.948 13.462 106.269 13.2223 106.593 12.8909V11.3681ZM100.692 6.38731C101.355 5.80215 102.088 5.36858 102.892 5.08658C103.702 4.79753 104.57 4.653 105.493 4.653C106.156 4.653 106.751 4.76228 107.28 4.98083C107.816 5.19233 108.267 5.49195 108.634 5.8797C109.007 6.2604 109.293 6.71513 109.49 7.24388C109.688 7.77263 109.787 8.35073 109.787 8.97818V15.8308H108.285C107.975 15.8308 107.738 15.7885 107.576 15.7039C107.421 15.6193 107.291 15.443 107.185 15.1751L106.952 14.5724C106.677 14.805 106.413 15.0095 106.159 15.1857C105.905 15.362 105.641 15.5135 105.366 15.6404C105.098 15.7603 104.809 15.8484 104.499 15.9048C104.196 15.9683 103.857 16 103.484 16C102.983 16 102.529 15.9365 102.12 15.8096C101.711 15.6757 101.362 15.4818 101.073 15.228C100.791 14.9742 100.572 14.6605 100.417 14.2868C100.262 13.9061 100.184 13.469 100.184 12.9755C100.184 12.5807 100.283 12.1824 100.48 11.7806C100.678 11.3717 101.02 11.0015 101.506 10.6702C101.993 10.3318 102.648 10.0498 103.473 9.82418C104.298 9.59858 105.338 9.47168 106.593 9.44348V8.97818C106.593 8.33663 106.459 7.87486 106.191 7.59286C105.93 7.30381 105.557 7.15928 105.07 7.15928C104.682 7.15928 104.365 7.20158 104.118 7.28618C103.872 7.37078 103.649 7.46596 103.452 7.57171C103.262 7.67746 103.075 7.77263 102.892 7.85723C102.708 7.94183 102.49 7.98413 102.236 7.98413C102.01 7.98413 101.82 7.92773 101.665 7.81493C101.51 7.70213 101.383 7.56818 101.284 7.41308L100.692 6.38731ZM90.3686 7.26504C90.284 7.39899 90.1923 7.49417 90.0936 7.55057C90.002 7.60697 89.8821 7.63517 89.7341 7.63517C89.579 7.63517 89.4239 7.60344 89.2688 7.53999C89.1137 7.46949 88.9445 7.39547 88.7612 7.31792C88.5849 7.24037 88.384 7.16987 88.1584 7.10642C87.9328 7.03592 87.6755 7.00067 87.3864 7.00067C86.9705 7.00067 86.6497 7.08174 86.4241 7.24389C86.2055 7.39899 86.0963 7.61754 86.0963 7.89954C86.0963 8.10399 86.1668 8.27319 86.3078 8.40714C86.4558 8.54109 86.6497 8.66094 86.8894 8.76669C87.1291 8.86539 87.4005 8.96057 87.7037 9.05222C88.0068 9.14387 88.317 9.24609 88.6343 9.35889C88.9515 9.47169 89.2617 9.60564 89.5649 9.76075C89.868 9.90879 90.1394 10.0956 90.3791 10.3212C90.6188 10.5398 90.8092 10.8077 90.9502 11.1249C91.0982 11.4422 91.1723 11.8229 91.1723 12.267C91.1723 12.8099 91.0736 13.3104 90.8762 13.7687C90.6788 14.2269 90.3827 14.6217 89.9879 14.9531C89.6001 15.2844 89.1172 15.5418 88.5391 15.7251C87.968 15.9084 87.3089 16 86.5616 16C86.1879 16 85.8143 15.9648 85.4406 15.8943C85.067 15.8238 84.7039 15.7286 84.3514 15.6087C84.0059 15.4889 83.6852 15.3479 83.3891 15.1857C83.093 15.0165 82.8392 14.8368 82.6277 14.6464L83.3891 13.4408C83.4737 13.2998 83.5794 13.1906 83.7063 13.113C83.8403 13.0284 84.0095 12.9861 84.2139 12.9861C84.4043 12.9861 84.5735 13.0284 84.7215 13.113C84.8766 13.1976 85.0423 13.2893 85.2185 13.388C85.3948 13.4867 85.5992 13.5783 85.8319 13.6629C86.0716 13.7475 86.3712 13.7898 86.7308 13.7898C86.9846 13.7898 87.1996 13.7651 87.3758 13.7158C87.5521 13.6594 87.6931 13.5854 87.7988 13.4937C87.9046 13.4021 87.9821 13.2998 88.0315 13.187C88.0808 13.0742 88.1055 12.9579 88.1055 12.8381C88.1055 12.6195 88.0315 12.4397 87.8834 12.2987C87.7354 12.1577 87.5415 12.0379 87.3018 11.9392C87.0621 11.8334 86.7872 11.7383 86.477 11.6537C86.1738 11.562 85.8636 11.4598 85.5464 11.347C85.2291 11.2342 84.9154 11.1002 84.6052 10.9451C84.302 10.783 84.0306 10.5821 83.7909 10.3424C83.5512 10.0956 83.3573 9.79599 83.2093 9.44349C83.0612 9.09099 82.9872 8.66447 82.9872 8.16392C82.9872 7.69862 83.0753 7.25799 83.2516 6.84204C83.4349 6.41904 83.7063 6.04891 84.0659 5.73166C84.4254 5.41441 84.8766 5.16414 85.4195 4.98084C85.9623 4.79049 86.5968 4.69531 87.323 4.69531C87.7178 4.69531 88.0985 4.73056 88.4651 4.80106C88.8387 4.87156 89.1877 4.97026 89.512 5.09716C89.8363 5.22406 90.1324 5.37564 90.4003 5.55189C90.6682 5.72109 90.9044 5.90791 91.1088 6.11236L90.3686 7.26504ZM59.1636 11.5373C59.5866 11.4527 60.1259 11.3963 60.7815 11.3681V12.8909C60.4572 13.2223 60.1365 13.462 59.8192 13.61C59.502 13.7581 59.1318 13.8321 58.7088 13.8321C58.314 13.8321 58.0144 13.7581 57.81 13.61C57.6055 13.4549 57.5033 13.1906 57.5033 12.8169C57.5033 12.6266 57.5491 12.4503 57.6408 12.2882C57.7395 12.126 57.9122 11.9815 58.1589 11.8546C58.4057 11.7277 58.7406 11.6219 59.1636 11.5373ZM57.0803 5.08658C56.2766 5.36858 55.5434 5.80215 54.8807 6.38731L55.4729 7.41308C55.5716 7.56818 55.6985 7.70213 55.8536 7.81493C56.0087 7.92773 56.199 7.98413 56.4246 7.98413C56.6784 7.98413 56.897 7.94183 57.0803 7.85723C57.2636 7.77263 57.4504 7.67746 57.6408 7.57171C57.8382 7.46596 58.0602 7.37078 58.307 7.28618C58.5537 7.20158 58.871 7.15928 59.2587 7.15928C59.7452 7.15928 60.1188 7.30381 60.3797 7.59286C60.6476 7.87486 60.7815 8.33663 60.7815 8.97818V9.44348C59.5266 9.47168 58.4868 9.59858 57.6619 9.82418C56.837 10.0498 56.1814 10.3318 55.6949 10.6702C55.2085 11.0015 54.8666 11.3717 54.6692 11.7806C54.4718 12.1824 54.3731 12.5807 54.3731 12.9755C54.3731 13.469 54.4506 13.9061 54.6057 14.2868C54.7608 14.6605 54.9794 14.9742 55.2614 15.228C55.5504 15.4818 55.8994 15.6757 56.3083 15.8096C56.7172 15.9365 57.1719 16 57.6725 16C58.0461 16 58.3845 15.9683 58.6877 15.9048C58.9979 15.8484 59.2869 15.7603 59.5548 15.6404C59.8298 15.5135 60.0942 15.362 60.348 15.1857C60.6018 15.0095 60.8661 14.805 61.1411 14.5724L61.3737 15.1751C61.4795 15.443 61.6099 15.6193 61.765 15.7039C61.9272 15.7885 62.1633 15.8308 62.4735 15.8308H63.9752V8.97818C63.9752 8.35073 63.8765 7.77263 63.6791 7.24388C63.4817 6.71513 63.1962 6.2604 62.8225 5.8797C62.4559 5.49195 62.0047 5.19233 61.4689 4.98083C60.9402 4.76228 60.3444 4.653 59.6817 4.653C58.7582 4.653 57.891 4.79753 57.0803 5.08658ZM50.5435 9.03107C50.5435 8.77022 50.5083 8.51642 50.4378 8.26967C50.3743 8.02292 50.2651 7.80437 50.11 7.61402C49.9619 7.41662 49.7645 7.25799 49.5178 7.13814C49.271 7.01829 48.9714 6.95837 48.6189 6.95837C47.9985 6.95837 47.512 7.13814 47.1595 7.49769C46.807 7.85019 46.5744 8.36132 46.4616 9.03107H50.5435ZM46.4193 10.9346C46.525 11.8511 46.8035 12.5173 47.2547 12.9332C47.7059 13.3421 48.2875 13.5466 48.9996 13.5466C49.3803 13.5466 49.7081 13.5008 49.9831 13.4091C50.258 13.3175 50.5012 13.2152 50.7127 13.1024C50.9313 12.9896 51.1287 12.8874 51.305 12.7958C51.4883 12.7041 51.6786 12.6583 51.876 12.6583C52.1369 12.6583 52.3343 12.7535 52.4682 12.9438L53.42 14.1176C53.0816 14.5054 52.715 14.8227 52.3202 15.0694C51.9324 15.3091 51.5306 15.4995 51.1146 15.6405C50.7057 15.7744 50.2933 15.8661 49.8773 15.9154C49.4684 15.9718 49.0771 16 48.7035 16C47.935 16 47.2124 15.8766 46.5356 15.6299C45.8659 15.3761 45.2772 15.0024 44.7696 14.5089C44.269 14.0154 43.8707 13.4021 43.5746 12.6689C43.2856 11.9357 43.141 11.0826 43.141 10.1097C43.141 9.37652 43.2644 8.68209 43.5112 8.02644C43.765 7.37079 44.1245 6.79622 44.5898 6.30271C45.0622 5.80921 45.6297 5.41794 46.2924 5.12889C46.9621 4.83984 47.7165 4.69531 48.5554 4.69531C49.2816 4.69531 49.9443 4.80811 50.5435 5.03371C51.1498 5.25931 51.668 5.58714 52.0981 6.01719C52.5352 6.44724 52.8736 6.97599 53.1133 7.60344C53.36 8.22384 53.4834 8.92884 53.4834 9.71844C53.4834 9.96519 53.4728 10.1661 53.4517 10.3212C53.4305 10.4763 53.3918 10.5997 53.3354 10.6913C53.279 10.783 53.2014 10.8464 53.1027 10.8817C53.0111 10.9169 52.8912 10.9346 52.7432 10.9346H46.4193ZM37.1757 7.48711C36.8373 7.60696 36.4249 7.66688 35.9385 7.66688H34.5003V3.09848H35.9385C36.862 3.09848 37.5423 3.28883 37.9794 3.66953C38.4236 4.05023 38.6457 4.57898 38.6457 5.25578C38.6457 5.59418 38.5963 5.91143 38.4976 6.20753C38.3989 6.49658 38.2403 6.75038 38.0217 6.96893C37.8032 7.18748 37.5212 7.36021 37.1757 7.48711ZM40.2954 15.8308H43.5313L40.2531 10.4693C40.0909 10.2225 39.9076 10.011 39.7032 9.83476C39.4987 9.65146 39.2802 9.49988 39.0475 9.38003C39.5481 9.18968 39.9887 8.94646 40.3694 8.65036C40.7571 8.35426 41.0814 8.01938 41.3423 7.64573C41.6031 7.26503 41.8005 6.85261 41.9345 6.40846C42.0684 5.9643 42.1354 5.49195 42.1354 4.9914C42.1354 4.33575 42.0226 3.72945 41.797 3.1725C41.5714 2.61555 41.2083 2.13262 40.7078 1.72372C40.2143 1.31482 39.5727 0.997573 38.7831 0.771973C38.0006 0.539323 37.0524 0.422998 35.9385 0.422998H30.9259V15.8308H34.5003V10.1309H35.4097C35.6847 10.1309 35.8962 10.1767 36.0442 10.2683C36.1923 10.3529 36.3262 10.4904 36.4461 10.6808L39.0052 15.154C39.2661 15.6052 39.6961 15.8308 40.2954 15.8308Z" fill="black"/>
</svg>
